# Blender v2.78 (sub 0) OBJ File: 'Bolter.blend'
# www.blender.org
mtllib Bolter.mtl
o Cube.002
v -0.262665 -1.340050 0.127239
v -0.262665 -0.712428 0.141886
v -0.262665 -1.135465 -0.632107
v -0.262665 -0.712428 -0.646754
v 0.262665 -1.340050 0.127239
v 0.262665 -0.712428 0.141886
v 0.262665 -1.135465 -0.632107
v 0.262665 -0.712428 -0.646754
v -0.262665 -1.783701 -0.912601
v -0.262665 -2.091814 -0.251851
v 0.262665 -1.783701 -0.912601
v 0.262665 -2.091814 -0.251851
vn -1.0000 0.0000 0.0000
vn 0.0000 -0.0346 -0.9994
vn 1.0000 0.0000 0.0000
vn 0.0000 -0.0233 0.9997
vn 0.0000 0.3971 -0.9178
vn 0.0000 1.0000 0.0000
vn 0.0000 -0.9063 -0.4226
vn 0.0000 -0.4503 0.8929
usemtl METAL_\,,/
s off
f 1//1 2//1 4//1 3//1
f 3//2 4//2 8//2 7//2
f 7//3 8//3 6//3 5//3
f 5//4 6//4 2//4 1//4
f 3//5 7//5 11//5 9//5
f 8//6 4//6 2//6 6//6
f 9//7 11//7 12//7 10//7
f 1//1 3//1 9//1 10//1
f 7//3 5//3 12//3 11//3
f 5//8 1//8 10//8 12//8
o Cube.001
v -0.214917 0.310720 -1.454774
v -0.114917 0.536191 -1.665227
v -0.214917 0.310720 -1.884608
v -0.114917 0.536191 -1.835479
v -0.072723 0.310720 -1.454774
v -0.072723 0.536191 -1.665227
v -0.072723 0.310720 -1.884608
v -0.072723 0.536191 -1.835479
v -0.175672 0.399206 -1.537366
v -0.175672 0.399206 -1.865328
v -0.072723 0.399206 -1.865328
v -0.072723 0.399206 -1.537366
v 0.001732 0.399206 -1.865328
v 0.001732 0.310720 -1.884608
v 0.001732 0.310720 -1.454774
v 0.001732 0.399206 -1.537366
v 0.214917 0.310720 -1.454774
v 0.114917 0.536191 -1.665227
v 0.214917 0.310720 -1.884608
v 0.114917 0.536191 -1.835479
v 0.072723 0.310720 -1.454774
v 0.072723 0.536191 -1.665227
v 0.072723 0.310720 -1.884608
v 0.072723 0.536191 -1.835479
v 0.175672 0.399206 -1.537366
v 0.175672 0.399206 -1.865328
v 0.072723 0.399206 -1.865328
v 0.072723 0.399206 -1.537366
v -0.001732 0.399206 -1.865328
v -0.001732 0.310720 -1.884608
v -0.001732 0.310720 -1.454774
v -0.001732 0.399206 -1.537366
vn -0.9141 0.4054 -0.0000
vn 0.0000 0.2129 -0.9771
vn 1.0000 0.0000 0.0000
vn 0.0000 0.6823 0.7310
vn 0.0000 -1.0000 0.0000
vn 0.0000 1.0000 0.0000
vn 0.9141 0.4054 -0.0000
vn -1.0000 0.0000 0.0000
usemtl METAL_\,,/
s off
f 21//9 14//9 16//9 22//9
f 22//10 16//10 20//10 23//10
f 23//11 20//11 18//11 24//11
f 24//12 18//12 14//12 21//12
f 15//13 19//13 17//13 13//13
f 20//14 16//14 14//14 18//14
f 17//12 24//12 21//12 13//12
f 19//10 23//10 25//10 26//10
f 15//10 22//10 23//10 19//10
f 13//9 21//9 22//9 15//9
f 26//11 25//11 28//11 27//11
f 23//14 24//14 28//14 25//14
f 24//12 17//12 27//12 28//12
f 17//13 19//13 26//13 27//13
f 37//15 38//15 32//15 30//15
f 38//10 39//10 36//10 32//10
f 39//16 40//16 34//16 36//16
f 40//12 37//12 30//12 34//12
f 31//13 29//13 33//13 35//13
f 36//14 34//14 30//14 32//14
f 33//12 29//12 37//12 40//12
f 35//10 42//10 41//10 39//10
f 31//10 35//10 39//10 38//10
f 29//15 31//15 38//15 37//15
f 42//16 43//16 44//16 41//16
f 39//14 41//14 44//14 40//14
f 40//12 44//12 43//12 33//12
f 33//13 43//13 42//13 35//13
o Cylinder
v 0.000000 -0.203549 -1.971152
v 0.000000 -0.203549 -2.378251
v 0.143931 -0.143931 -1.971152
v 0.143931 -0.143931 -2.378251
v 0.203549 -0.000000 -1.971152
v 0.203549 0.000000 -2.378251
v 0.143931 0.143931 -1.971152
v 0.143931 0.143931 -2.378251
v -0.000000 0.203549 -1.971152
v -0.000000 0.203549 -2.378251
v -0.143931 0.143931 -1.971152
v -0.143931 0.143931 -2.378251
v -0.203549 -0.000000 -1.971152
v -0.203549 0.000000 -2.378251
v -0.143931 -0.143931 -1.971152
v -0.143931 -0.143931 -2.378251
vn 0.3827 -0.9239 -0.0000
vn 0.9239 -0.3827 -0.0000
vn 0.9239 0.3827 0.0000
vn 0.3827 0.9239 0.0000
vn -0.3827 0.9239 0.0000
vn -0.9239 0.3827 0.0000
vn 0.0000 0.0000 -1.0000
vn -0.9239 -0.3827 -0.0000
vn -0.3827 -0.9239 -0.0000
vn 0.0000 0.0000 1.0000
usemtl METAL_\,,/
s off
f 45//17 46//17 48//17 47//17
f 47//18 48//18 50//18 49//18
f 49//19 50//19 52//19 51//19
f 51//20 52//20 54//20 53//20
f 53//21 54//21 56//21 55//21
f 55//22 56//22 58//22 57//22
f 48//23 46//23 60//23 58//23 56//23 54//23 52//23 50//23
f 57//24 58//24 60//24 59//24
f 59//25 60//25 46//25 45//25
f 45//26 47//26 49//26 51//26 53//26 55//26 57//26 59//26
o Cube
v 0.198579 -0.679764 -1.973718
v 0.300000 -0.679764 1.056205
v -0.300000 -0.679764 1.056205
v -0.203051 -0.679764 -1.973718
v 0.300000 0.330248 -1.973717
v 0.300000 0.330248 1.056206
v -0.300000 0.330248 1.056205
v -0.300000 0.330248 -1.973718
v 0.299999 -0.679764 1.523051
v -0.300001 -0.679764 1.523050
v 0.299999 0.017576 1.523051
v -0.300001 0.017576 1.523050
v 0.300000 -0.679764 -0.825213
v -0.300000 -0.679764 -0.825213
v 0.300000 0.330248 -0.825212
v -0.300000 0.330248 -0.825213
v 0.300000 -0.679764 0.247701
v 0.300000 0.330248 0.247702
v -0.300000 -0.679764 0.247700
v -0.300000 0.330248 0.247701
v -0.300000 -0.979764 0.186689
v -0.300000 -0.979764 -0.691341
v 0.300000 -0.979764 -0.691340
v 0.300000 -0.979764 0.186689
v 0.300000 -0.394075 -1.973718
v 0.300000 -0.394075 1.056206
v -0.300000 -0.394075 1.056205
v -0.300000 -0.394075 -1.973718
v 0.299999 -0.482517 1.523051
v -0.300001 -0.482517 1.523050
v -0.300000 -0.394075 -0.825213
v 0.300000 -0.394075 -0.825213
v -0.300000 -0.394075 0.247700
v 0.300000 -0.394075 0.247701
v -0.300000 -0.679764 -0.895802
v -0.300000 0.330248 -0.895802
v 0.300000 -0.679764 -0.895802
v 0.300000 0.330248 -0.895801
v 0.300000 -0.394075 -0.895801
v -0.300000 -0.394075 -0.895802
v -0.203051 -0.679764 -1.891626
v -0.300000 0.330248 -1.891626
v -0.300000 -0.394075 -1.891626
v 0.198579 -0.679764 -1.891626
v 0.300000 0.330248 -1.891625
v 0.300000 -0.394075 -1.891626
v 0.198579 -0.679764 -0.917282
v 0.300000 0.330248 -0.917282
v 0.300000 -0.394075 -0.917282
v -0.203051 -0.679764 -0.917283
v -0.300000 0.330248 -0.917283
v -0.300000 -0.394075 -0.917283
v -0.203051 -0.679764 -1.872877
v -0.300000 0.330248 -1.872877
v -0.300000 -0.394075 -1.872877
v 0.198579 -0.679764 -1.872877
v 0.300000 0.330248 -1.872876
v 0.300000 -0.394075 -1.872876
v -0.203051 -0.679764 1.056205
v -0.203051 0.330248 -1.973718
v -0.203051 0.330248 1.056205
v -0.203051 -0.679764 1.523050
v -0.203051 0.017576 1.523050
v -0.203051 0.330248 -0.825213
v -0.203051 -0.679764 -0.825213
v -0.203051 0.330248 0.247701
v -0.203051 -0.679764 0.247701
v -0.203051 -0.979764 -0.691341
v -0.203051 -0.979764 0.186689
v -0.203051 -0.482517 1.523050
v -0.203051 -0.394075 -1.973718
v -0.203051 -0.679764 -0.895802
v -0.203051 0.330248 -0.895802
v -0.203051 0.330248 -1.891626
v -0.203051 0.330248 -0.917282
v -0.203051 0.330248 -1.872876
v 0.198579 0.330248 -0.825212
v 0.198579 0.330248 0.247701
v 0.198579 0.330248 -0.895801
v 0.198579 0.330248 -1.891626
v 0.198579 0.330248 -0.917282
v 0.198579 0.330248 -1.872876
v 0.198579 -0.679764 1.056205
v 0.198579 0.330248 -1.973717
v 0.198579 0.330248 1.056206
v 0.198578 -0.679764 1.523050
v 0.198578 0.017576 1.523051
v 0.198579 -0.679764 -0.825213
v 0.198579 -0.679764 0.247701
v 0.198579 -0.979764 -0.691340
v 0.198579 -0.979764 0.186689
v 0.198578 -0.482517 1.523051
v 0.198579 -0.394075 -1.973718
v 0.198579 -0.679764 -0.895802
vn 0.0000 -1.0000 -0.0000
vn 0.0000 1.0000 0.0000
vn 1.0000 0.0000 0.0000
vn -1.0000 -0.0000 -0.0000
vn 0.0000 0.0000 -1.0000
vn -0.0000 -0.0000 1.0000
vn -0.0000 0.8309 0.5565
vn -0.0000 -0.1993 0.9799
vn 0.0000 -0.4075 -0.9132
vn -0.9470 -0.3214 0.0000
vn 0.3891 -0.0691 -0.9186
vn 0.9424 -0.3345 0.0000
vn -0.4042 -0.0686 -0.9121
vn 0.9424 -0.3346 0.0000
usemtl Chassis
s off
f 127//27 119//27 63//27 79//27
f 126//28 80//28 67//28 121//28
f 94//29 78//29 66//29 86//29
f 87//30 63//30 70//30 90//30
f 103//30 102//30 68//30 88//30
f 131//31 64//31 88//31
f 130//32 123//32 72//32 90//32
f 86//29 66//29 71//29 89//29
f 143//27 62//27 69//27 146//27
f 121//33 67//33 72//33 123//33
f 93//30 80//30 76//30 91//30
f 99//29 98//29 75//29 92//29
f 133//28 96//28 76//28 124//28
f 132//27 125//27 74//27 95//27
f 87//30 67//30 80//30 93//30
f 92//29 75//29 78//29 94//29
f 124//28 76//28 80//28 126//28
f 73//29 77//29 84//29 83//29
f 128//27 129//27 81//27 82//27
f 127//34 79//34 81//34 129//34
f 148//35 73//35 83//35 150//35
f 79//30 74//30 82//30 81//30
f 73//29 92//29 94//29 77//29
f 63//30 87//30 93//30 79//30
f 97//29 99//29 92//29 73//29
f 79//30 93//30 91//30 74//30
f 62//29 86//29 89//29 69//29
f 122//32 130//32 90//32 70//32
f 120//31 131//31 88//31 68//31
f 101//36 103//36 88//36 64//36
f 67//30 87//30 90//30 72//30
f 77//29 94//29 86//29 62//29
f 74//30 91//30 100//30 95//30
f 107//37 109//37 99//37 97//37
f 110//27 132//27 95//27
f 135//28 111//28 96//28 133//28
f 109//29 108//29 98//29 99//29
f 91//30 76//30 96//30 100//30
f 85//29 65//29 105//29 106//29
f 120//28 68//28 102//28 134//28
f 61//38 85//38 106//38 104//38
f 113//36 115//36 103//36 101//36
f 115//30 114//30 102//30 103//30
f 100//30 96//30 111//30 112//30
f 95//39 100//39 112//39 110//39
f 118//29 117//29 108//29 109//29
f 136//28 114//28 111//28 135//28
f 116//40 118//40 109//40 107//40
f 104//38 106//38 118//38 116//38
f 134//28 102//28 114//28 136//28
f 106//29 105//29 117//29 118//29
f 112//30 111//30 114//30 115//30
f 110//36 112//36 115//36 113//36
f 140//28 134//28 136//28 142//28
f 104//27 116//27 113//27 101//27
f 116//27 107//27 110//27 113//27
f 142//28 136//28 135//28 141//28
f 61//27 104//27 101//27 64//27
f 144//28 120//28 134//28 140//28
f 141//28 135//28 133//28 139//28
f 107//27 154//27 132//27 110//27
f 144//31 153//31 131//31 120//31
f 146//32 152//32 130//32 122//32
f 74//35 125//35 128//35 82//35
f 149//34 127//34 129//34 151//34
f 150//27 151//27 129//27 128//27
f 137//28 124//28 126//28 138//28
f 154//27 148//27 125//27 132//27
f 139//28 133//28 124//28 137//28
f 145//33 121//33 123//33 147//33
f 63//27 119//27 122//27 70//27
f 152//32 147//32 123//32 130//32
f 153//31 61//31 64//31 131//31
f 138//28 126//28 121//28 145//28
f 149//27 143//27 119//27 127//27
f 77//27 62//27 143//27 149//27
f 78//28 138//28 145//28 66//28
f 85//31 61//31 153//31
f 89//32 71//32 147//32 152//32
f 66//33 145//33 147//33 71//33
f 98//28 139//28 137//28 75//28
f 97//27 73//27 148//27 154//27
f 75//28 137//28 138//28 78//28
f 83//27 84//27 151//27 150//27
f 77//34 149//34 151//34 84//34
f 69//32 89//32 152//32 146//32
f 65//31 85//31 153//31 144//31
f 107//27 97//27 154//27
f 108//28 141//28 139//28 98//28
f 65//28 144//28 140//28 105//28
f 117//28 142//28 141//28 108//28
f 105//28 140//28 142//28 117//28
f 125//35 148//35 150//35 128//35
f 119//27 143//27 146//27 122//27
