# Blender v2.78 (sub 0) OBJ File: 'PrisonScape.blend'
# www.blender.org
mtllib PrisonScape.mtl
o Cube.013_Cube.015
v -0.453027 0.166562 -2.996384
v -0.453027 2.166562 -2.996384
v -2.041883 0.166562 -4.211102
v -2.041883 2.166562 -4.211102
v 2.041883 0.166562 -6.259734
v 2.041883 2.166562 -6.259734
v 0.453027 0.166562 -7.474452
v 0.453027 2.166562 -7.474452
vn -0.6074 0.0000 0.7944
vn -0.7944 0.0000 -0.6074
vn 0.6074 0.0000 -0.7944
vn 0.7944 0.0000 0.6074
vn 0.0000 -1.0000 0.0000
vn 0.0000 1.0000 -0.0000
usemtl Material.001
s off
f 1//1 2//1 4//1 3//1
f 3//2 4//2 8//2 7//2
f 7//3 8//3 6//3 5//3
f 5//4 6//4 2//4 1//4
f 3//5 7//5 5//5 1//5
f 8//6 4//6 2//6 6//6
o Cube.008_Cube.010
v -6.637429 0.139152 0.182519
v -6.637429 0.867658 0.182519
v -6.338235 0.139152 -0.481712
v -6.338235 0.867658 -0.481712
v -5.973197 0.139152 0.481712
v -5.973197 0.867658 0.481712
v -5.674004 0.139152 -0.182519
v -5.674004 0.867658 -0.182519
vn -0.9118 0.0000 -0.4107
vn 0.4107 0.0000 -0.9118
vn 0.9118 0.0000 0.4107
vn -0.4107 0.0000 0.9118
vn 0.0000 -1.0000 0.0000
vn 0.0000 1.0000 0.0000
usemtl Material.002
s off
f 9//7 10//7 12//7 11//7
f 11//8 12//8 16//8 15//8
f 15//9 16//9 14//9 13//9
f 13//10 14//10 10//10 9//10
f 11//11 15//11 13//11 9//11
f 16//12 12//12 10//12 14//12
o Cube.007_Cube.009
v -9.900001 -0.408732 -2.542139
v -9.900001 -0.208014 -2.426255
v -9.900001 2.808014 -8.113707
v -9.900001 3.008732 -7.997822
v -7.900001 -0.408732 -2.542139
v -7.900001 -0.208014 -2.426255
v -7.900001 2.808014 -8.113707
v -7.900001 3.008732 -7.997822
vn -1.0000 -0.0000 0.0000
vn 0.0000 0.5000 -0.8660
vn 1.0000 -0.0000 0.0000
vn 0.0000 -0.5000 0.8660
vn 0.0000 -0.8660 -0.5000
vn 0.0000 0.8660 0.5000
usemtl Material.003
s off
f 17//13 18//13 20//13 19//13
f 19//14 20//14 24//14 23//14
f 23//15 24//15 22//15 21//15
f 21//16 22//16 18//16 17//16
f 19//17 23//17 21//17 17//17
f 24//18 20//18 18//18 22//18
o Cube.005_Cube.007
v -10.058901 2.970000 -8.000000
v -10.058901 3.030000 -8.000000
v -10.058901 2.970000 -10.000000
v -10.058901 3.030000 -10.000000
v 10.058901 2.970000 -8.000000
v 10.058901 3.030000 -8.000000
v 10.058901 2.970000 -10.000000
v 10.058901 3.030000 -10.000000
vn -1.0000 0.0000 0.0000
vn 0.0000 0.0000 -1.0000
vn 1.0000 0.0000 0.0000
vn 0.0000 0.0000 1.0000
vn 0.0000 -1.0000 0.0000
vn 0.0000 1.0000 0.0000
usemtl Material.003
s off
f 25//19 26//19 28//19 27//19
f 27//20 28//20 32//20 31//20
f 31//21 32//21 30//21 29//21
f 29//22 30//22 26//22 25//22
f 27//23 31//23 29//23 25//23
f 32//24 28//24 26//24 30//24
o Cube_Cube.001
v -10.000000 -0.100000 10.000000
v -10.000000 0.100000 10.000000
v -10.000000 -0.100000 -10.000000
v -10.000000 0.100000 -10.000000
v 10.000000 -0.100000 10.000000
v 10.000000 0.100000 10.000000
v 10.000000 -0.100000 -10.000000
v 10.000000 0.100000 -10.000000
vn -1.0000 0.0000 0.0000
vn 0.0000 0.0000 -1.0000
vn 1.0000 0.0000 0.0000
vn 0.0000 0.0000 1.0000
vn 0.0000 -1.0000 0.0000
vn 0.0000 1.0000 0.0000
usemtl Material.004
s off
f 33//25 34//25 36//25 35//25
f 35//26 36//26 40//26 39//26
f 39//27 40//27 38//27 37//27
f 37//28 38//28 34//28 33//28
f 35//29 39//29 37//29 33//29
f 40//30 36//30 34//30 38//30
o Cube.002_Cube.003
v 9.900000 -0.094267 10.000000
v 9.900000 4.905733 10.000000
v 9.900000 -0.094267 -10.000000
v 9.900000 4.905733 -10.000000
v 10.100000 -0.094267 10.000000
v 10.100000 4.905733 10.000000
v 10.100000 -0.094267 -10.000000
v 10.100000 4.905733 -10.000000
vn -1.0000 0.0000 0.0000
vn 0.0000 0.0000 -1.0000
vn 1.0000 0.0000 0.0000
vn 0.0000 0.0000 1.0000
vn 0.0000 -1.0000 0.0000
vn 0.0000 1.0000 0.0000
usemtl Material.004
s off
f 41//31 42//31 44//31 43//31
f 43//32 44//32 48//32 47//32
f 47//33 48//33 46//33 45//33
f 45//34 46//34 42//34 41//34
f 43//35 47//35 45//35 41//35
f 48//36 44//36 42//36 46//36
o Cube.001_Cube.004
v -10.100000 -0.094267 10.000000
v -10.100000 4.905733 10.000000
v -10.100000 -0.094267 -10.000000
v -10.100000 4.905733 -10.000000
v -9.900000 -0.094267 10.000000
v -9.900000 4.905733 10.000000
v -9.900000 -0.094267 -10.000000
v -9.900000 4.905733 -10.000000
vn -1.0000 0.0000 0.0000
vn 0.0000 0.0000 -1.0000
vn 1.0000 0.0000 0.0000
vn 0.0000 0.0000 1.0000
vn 0.0000 -1.0000 0.0000
vn 0.0000 1.0000 0.0000
usemtl Material.004
s off
f 49//37 50//37 52//37 51//37
f 51//38 52//38 56//38 55//38
f 55//39 56//39 54//39 53//39
f 53//40 54//40 50//40 49//40
f 51//41 55//41 53//41 49//41
f 56//42 52//42 50//42 54//42
o Cube.003_Cube.005
v 10.000000 -0.094267 -9.900001
v 10.000000 4.905733 -9.900001
v -10.000000 -0.094267 -9.900000
v -10.000000 4.905733 -9.900000
v 10.000000 -0.094267 -10.100000
v 10.000000 4.905733 -10.100000
v -10.000000 -0.094267 -10.099999
v -10.000000 4.905733 -10.099999
vn 0.0000 0.0000 1.0000
vn -1.0000 0.0000 0.0000
vn -0.0000 0.0000 -1.0000
vn 1.0000 0.0000 0.0000
vn 0.0000 -1.0000 0.0000
vn 0.0000 1.0000 0.0000
usemtl Material.004
s off
f 57//43 58//43 60//43 59//43
f 59//44 60//44 64//44 63//44
f 63//45 64//45 62//45 61//45
f 61//46 62//46 58//46 57//46
f 59//47 63//47 61//47 57//47
f 64//48 60//48 58//48 62//48
o Cube.004_Cube.006
v 10.000000 -0.094267 10.099999
v 10.000000 4.905733 10.099999
v -10.000000 -0.094267 10.100000
v -10.000000 4.905733 10.100000
v 10.000000 -0.094267 9.900000
v 10.000000 4.905733 9.900000
v -10.000000 -0.094267 9.900001
v -10.000000 4.905733 9.900001
vn 0.0000 0.0000 1.0000
vn -1.0000 0.0000 0.0000
vn -0.0000 0.0000 -1.0000
vn 1.0000 0.0000 0.0000
vn 0.0000 -1.0000 0.0000
vn 0.0000 1.0000 0.0000
usemtl Material.004
s off
f 65//49 66//49 68//49 67//49
f 67//50 68//50 72//50 71//50
f 71//51 72//51 70//51 69//51
f 69//52 70//52 66//52 65//52
f 67//53 71//53 69//53 65//53
f 72//54 68//54 66//54 70//54
o Cube.006_Cube.008
v 10.000000 2.970000 9.851501
v 10.000000 3.030000 9.851501
v 8.000000 2.970000 9.851501
v 8.000000 3.030000 9.851501
v 10.000000 2.970000 -9.851501
v 10.000000 3.030000 -9.851501
v 8.000000 2.970000 -9.851501
v 8.000000 3.030000 -9.851501
vn 0.0000 0.0000 1.0000
vn -1.0000 0.0000 0.0000
vn 0.0000 0.0000 -1.0000
vn 1.0000 0.0000 0.0000
vn 0.0000 -1.0000 0.0000
vn 0.0000 1.0000 0.0000
usemtl Material.003
s off
f 73//55 74//55 76//55 75//55
f 75//56 76//56 80//56 79//56
f 79//57 80//57 78//57 77//57
f 77//58 78//58 74//58 73//58
f 75//59 79//59 77//59 73//59
f 80//60 76//60 74//60 78//60
o Cube.009_Cube.011
v -5.574625 0.139152 -0.034471
v -5.574625 0.867658 -0.034471
v -5.886782 0.139152 -0.692710
v -5.886782 0.867658 -0.692710
v -4.916387 0.139152 -0.346628
v -4.916387 0.867658 -0.346628
v -5.228543 0.139152 -1.004866
v -5.228543 0.867658 -1.004866
vn -0.9035 0.0000 0.4285
vn -0.4285 0.0000 -0.9035
vn 0.9035 0.0000 -0.4285
vn 0.4285 0.0000 0.9035
vn 0.0000 -1.0000 0.0000
vn 0.0000 1.0000 0.0000
usemtl Material.002
s off
f 81//61 82//61 84//61 83//61
f 83//62 84//62 88//62 87//62
f 87//63 88//63 86//63 85//63
f 85//64 86//64 82//64 81//64
f 83//65 87//65 85//65 81//65
f 88//66 84//66 82//66 86//66
o Cube.010_Cube.012
v 6.731947 0.199974 7.945150
v 6.712885 0.926143 8.000245
v 6.482559 0.141684 8.627153
v 6.463498 0.867853 8.682247
v 6.047723 0.200989 7.695037
v 6.028662 0.927158 7.750132
v 5.798336 0.142700 8.377040
v 5.779274 0.868868 8.432135
vn 0.9392 -0.0014 0.3433
vn -0.3423 -0.0800 0.9362
vn -0.9392 0.0014 -0.3433
vn 0.3423 0.0800 -0.9362
vn 0.0262 -0.9968 -0.0756
vn -0.0262 0.9968 0.0756
usemtl Material.002
s off
f 89//67 90//67 92//67 91//67
f 91//68 92//68 96//68 95//68
f 95//69 96//69 94//69 93//69
f 93//70 94//70 90//70 89//70
f 91//71 95//71 93//71 89//71
f 96//72 92//72 90//72 94//72
o Cube.011_Cube.013
v 5.688363 0.150446 8.236896
v 5.669301 0.876614 8.291990
v 6.048016 0.111909 8.869260
v 6.028954 0.838078 8.924355
v 5.055112 0.106700 8.594387
v 5.036051 0.832869 8.649482
v 5.414765 0.068163 9.226751
v 5.395704 0.794332 9.281846
vn 0.8692 0.0600 -0.4907
vn 0.4937 -0.0529 0.8680
vn -0.8692 -0.0600 0.4907
vn -0.4937 0.0529 -0.8680
vn 0.0262 -0.9968 -0.0756
vn -0.0262 0.9968 0.0756
usemtl Material.002
s off
f 97//73 98//73 100//73 99//73
f 99//74 100//74 104//74 103//74
f 103//75 104//75 102//75 101//75
f 101//76 102//76 98//76 97//76
f 99//77 103//77 101//77 97//77
f 104//78 100//78 98//78 102//78
o Cube.012_Cube.014
v 6.495895 0.932616 8.454656
v 6.445781 1.658784 8.484445
v 6.362592 0.894079 9.169824
v 6.312479 1.620248 9.199612
v 5.781445 0.888870 8.319130
v 5.731331 1.615039 8.348918
v 5.648142 0.850334 9.034297
v 5.598029 1.576502 9.064086
vn 0.9807 0.0600 0.1860
vn -0.1830 -0.0529 0.9817
vn -0.9807 -0.0600 -0.1860
vn 0.1830 0.0529 -0.9817
vn 0.0688 -0.9968 -0.0409
vn -0.0688 0.9968 0.0409
usemtl Material.002
s off
f 105//79 106//79 108//79 107//79
f 107//80 108//80 112//80 111//80
f 111//81 112//81 110//81 109//81
f 109//82 110//82 106//82 105//82
f 107//83 111//83 109//83 105//83
f 112//84 108//84 106//84 110//84
o Cube.014_Cube.016
v 1.862768 0.166562 -0.896825
v 1.862768 2.166562 -0.896825
v 0.774289 0.166562 -2.574685
v 0.774289 2.166562 -2.574685
v 5.308925 0.166562 -3.132453
v 5.308925 2.166562 -3.132453
v 4.220446 0.166562 -4.810313
v 4.220446 2.166562 -4.810313
vn -0.8389 0.0000 0.5442
vn -0.5442 0.0000 -0.8389
vn 0.8389 0.0000 -0.5442
vn 0.5442 0.0000 0.8389
vn 0.0000 -1.0000 -0.0000
vn 0.0000 1.0000 0.0000
usemtl Material.001
s off
f 113//85 114//85 116//85 115//85
f 115//86 116//86 120//86 119//86
f 119//87 120//87 118//87 117//87
f 117//88 118//88 114//88 113//88
f 115//89 119//89 117//89 113//89
f 120//90 116//90 114//90 118//90
